<svg xmlns="http://www.w3.org/2000/svg" version="1.1" xmlns:xlink="http://www.w3.org/1999/xlink" xmlns:svgjs="http://svgjs.dev/svgjs" width="1000" height="623" viewBox="0 0 1000 623"><g transform="matrix(1,0,0,1,-0.6060606060606233,0.2522267206477409)"><svg viewBox="0 0 396 247" data-background-color="#ffffff" preserveAspectRatio="xMidYMid meet" height="623" width="1000" xmlns="http://www.w3.org/2000/svg" xmlns:xlink="http://www.w3.org/1999/xlink"><g id="tight-bounds" transform="matrix(1,0,0,1,0.2400000000000091,-0.09999999999999432)"><svg viewBox="0 0 395.52 247.2" height="247.2" width="395.52"><g><svg></svg></g><g><svg viewBox="0 0 395.52 247.2" height="247.2" width="395.52"><g><g><path xmlns="http://www.w3.org/2000/svg" d="M193.033 247.2c-14.006 0-28.408-1.821-43.207-5.462-7.298-1.767-13.986-3.889-20.066-6.367l113.936 0c-14.522 7.886-31.41 11.829-50.663 11.829zM197.445 0c20.837 0 41.312 3.943 61.426 11.829l-111.426 0c13.724-7.886 30.391-11.829 50-11.829z" fill="#00ff4f" fill-rule="nonzero" stroke="none" stroke-width="1" stroke-linecap="butt" stroke-linejoin="miter" stroke-miterlimit="10" stroke-dasharray="" stroke-dashoffset="0" font-family="none" font-weight="none" font-size="none" text-anchor="none" style="mix-blend-mode: normal" data-fill-palette-color="tertiary"></path></g></g><g transform="matrix(1,0,0,1,72.39178470254954,37.08)"><svg viewBox="0 0 250.7364305949009 173.04" height="173.04" width="250.7364305949009"><g><svg viewBox="0 0 250.7364305949009 173.04" height="173.04" width="250.7364305949009"><g><svg viewBox="0 0 250.7364305949009 173.04" height="173.04" width="250.7364305949009"><g><svg viewBox="0 0 250.7364305949009 173.04" height="173.04" width="250.7364305949009"><g><svg viewBox="0 0 250.7364305949009 173.04" height="173.04" width="250.7364305949009"><g><svg viewBox="0 0 250.7364305949009 173.04" height="173.04" width="250.7364305949009"><g transform="matrix(1,0,0,1,0,0)"><svg width="250.7364305949009" viewBox="1.600000023841858 -34.900001525878906 51.150001525878906 35.30000305175781" height="173.04" data-palette-color="#000000"><path d="M17-29.05L17-29.05Q15.3-29.5 13.45-29.5 11.6-29.5 10.48-28.58 9.35-27.65 9.35-25.98 9.35-24.3 10.2-23.35 11.05-22.4 13.55-21.7L13.55-21.7 18-20.4Q21.6-19.35 23.73-17.13 25.85-14.9 25.85-10.6L25.85-10.6Q25.85-5.5 22.18-2.55 18.5 0.4 13.05 0.4L13.05 0.4Q10.05 0.4 6.88-0.38 3.7-1.15 1.6-2.55L1.6-2.55Q1.6-2.85 1.6-3.7 1.6-4.55 1.95-6.6 2.3-8.65 2.95-9.95L2.95-9.95 7.7-9.95Q8.5-8.4 8.65-5.8L8.65-5.8Q10.4-5.05 12.73-5.05 15.05-5.05 16.55-6.15 18.05-7.25 18.05-9.3L18.05-9.3Q18.05-10.25 17.9-10.88 17.75-11.5 16.98-12.23 16.2-12.95 14.75-13.4L14.75-13.4 9.6-14.9Q1.75-17.15 1.75-24.9L1.75-24.9Q1.75-29.45 5.05-32.18 8.35-34.9 13.68-34.9 19-34.9 24.1-32.5L24.1-32.5Q24.1-32.2 24.1-31.35 24.1-30.5 23.75-28.45 23.4-26.4 22.75-25.1L22.75-25.1 18-25.1Q17.15-26.3 17-29.05ZM43.9-29.05L43.9-29.05Q42.2-29.5 40.35-29.5 38.5-29.5 37.37-28.58 36.25-27.65 36.25-25.98 36.25-24.3 37.1-23.35 37.95-22.4 40.45-21.7L40.45-21.7 44.9-20.4Q48.5-19.35 50.62-17.13 52.75-14.9 52.75-10.6L52.75-10.6Q52.75-5.5 49.07-2.55 45.4 0.4 39.95 0.4L39.95 0.4Q36.95 0.4 33.77-0.38 30.6-1.15 28.5-2.55L28.5-2.55Q28.5-2.85 28.5-3.7 28.5-4.55 28.85-6.6 29.2-8.65 29.85-9.95L29.85-9.95 34.6-9.95Q35.4-8.4 35.55-5.8L35.55-5.8Q37.3-5.05 39.62-5.05 41.95-5.05 43.45-6.15 44.95-7.25 44.95-9.3L44.95-9.3Q44.95-10.25 44.8-10.88 44.65-11.5 43.87-12.23 43.1-12.95 41.65-13.4L41.65-13.4 36.5-14.9Q28.65-17.15 28.65-24.9L28.65-24.9Q28.65-29.45 31.95-32.18 35.25-34.9 40.57-34.9 45.9-34.9 51-32.5L51-32.5Q51-32.2 51-31.35 51-30.5 50.65-28.45 50.3-26.4 49.65-25.1L49.65-25.1 44.9-25.1Q44.05-26.3 43.9-29.05Z" opacity="1" transform="matrix(1,0,0,1,0,0)" fill="#000000" class="undefined-text-0" data-fill-palette-color="primary" id="text-0"></path></svg></g></svg></g></svg></g></svg></g></svg></g></svg></g></svg></g></svg></g><defs></defs></svg><rect width="395.52" height="247.2" fill="none" stroke="none" visibility="hidden"></rect></g></svg></g></svg>